HIERARCHY
ROOT Hips
{
	OFFSET 0.000000 100.481300 0.000000
	CHANNELS 6 Xposition Yposition Zposition Xrotation Yrotation Zrotation
	JOINT Spine
	{
		OFFSET -0.279200 12.230698 -2.892100
		CHANNELS 3 Xrotation Yrotation Zrotation
		JOINT Spine1
		{
			OFFSET -0.325700 14.269203 -3.374200
			CHANNELS 3 Xrotation Yrotation Zrotation
			JOINT Spine2
			{
				OFFSET -0.372300 16.307602 -0.352600
				CHANNELS 3 Xrotation Yrotation Zrotation
				JOINT Neck
				{
					OFFSET -0.418800 17.814194 8.416900
					CHANNELS 3 Xrotation Yrotation Zrotation
					JOINT Head
					{
						OFFSET 0.000000 7.031097 3.806800
						CHANNELS 3 Xrotation Yrotation Zrotation
						JOINT HeadTop_End
						{
							OFFSET 0.000000 24.646606 12.978600
							CHANNELS 3 Xrotation Yrotation Zrotation
							End Site
							{
								OFFSET 0.000000 27.854965 0.000000
							}
						}
					}
				}
				JOINT LeftShoulder
				{
					OFFSET 16.952999 14.495407 -7.737500
					CHANNELS 3 Xrotation Yrotation Zrotation
					JOINT LeftArm
					{
						OFFSET 9.308998 -2.777710 0.208600
						CHANNELS 3 Xrotation Yrotation Zrotation
						JOINT LeftForeArm
						{
							OFFSET 29.972298 0.000000 0.000000
							CHANNELS 3 Xrotation Yrotation Zrotation
							JOINT LeftHand
							{
								OFFSET 26.026505 0.000000 0.000000
								CHANNELS 3 Xrotation Yrotation Zrotation
								JOINT LeftHandThumb1
								{
									OFFSET 12.240501 -7.147949 9.207150
									CHANNELS 3 Xrotation Yrotation Zrotation
									JOINT LeftHandThumb2
									{
										OFFSET 4.138618 -2.389435 2.389433
										CHANNELS 3 Xrotation Yrotation Zrotation
										JOINT LeftHandThumb3
										{
											OFFSET 2.726913 -1.574387 1.574386
											CHANNELS 3 Xrotation Yrotation Zrotation
											JOINT LeftHandThumb4
											{
												OFFSET 3.941010 -2.275345 2.275342
												CHANNELS 3 Xrotation Yrotation Zrotation
												End Site
												{
													OFFSET -0.005798 5.087799 0.009903
												}
											}
										}
									}
								}
								JOINT LeftHandIndex1
								{
									OFFSET 24.424698 -1.985611 5.953459
									CHANNELS 3 Xrotation Yrotation Zrotation
									JOINT LeftHandIndex2
									{
										OFFSET 6.426697 0.000000 0.000000
										CHANNELS 3 Xrotation Yrotation Zrotation
										JOINT LeftHandIndex3
										{
											OFFSET 5.337898 0.000000 0.000000
											CHANNELS 3 Xrotation Yrotation Zrotation
											JOINT LeftHandIndex4
											{
												OFFSET 4.409401 0.000000 0.000000
												CHANNELS 3 Xrotation Yrotation Zrotation
												End Site
												{
													OFFSET 0.000000 4.409363 0.014373
												}
											}
										}
									}
								}
								JOINT LeftHandMiddle1
								{
									OFFSET 23.810104 0.000000 0.000000
									CHANNELS 3 Xrotation Yrotation Zrotation
									JOINT LeftHandMiddle2
									{
										OFFSET 7.176498 0.000000 0.000000
										CHANNELS 3 Xrotation Yrotation Zrotation
										JOINT LeftHandMiddle3
										{
											OFFSET 6.774902 0.000000 0.000000
											CHANNELS 3 Xrotation Yrotation Zrotation
											JOINT LeftHandMiddle4
											{
												OFFSET 5.403328 0.000000 0.000000
												CHANNELS 3 Xrotation Yrotation Zrotation
												End Site
												{
													OFFSET -0.027702 5.403244 0.017414
												}
											}
										}
									}
								}
								JOINT LeftHandRing1
								{
									OFFSET 22.908401 -0.839279 -6.020567
									CHANNELS 3 Xrotation Yrotation Zrotation
									JOINT LeftHandRing2
									{
										OFFSET 6.337502 0.000000 0.000000
										CHANNELS 3 Xrotation Yrotation Zrotation
										JOINT LeftHandRing3
										{
											OFFSET 5.779297 0.000000 0.000000
											CHANNELS 3 Xrotation Yrotation Zrotation
											JOINT LeftHandRing4
											{
												OFFSET 4.965698 0.000000 0.000000
												CHANNELS 3 Xrotation Yrotation Zrotation
												End Site
												{
													OFFSET 0.000000 4.965668 0.016186
												}
											}
										}
									}
								}
								JOINT LeftHandPinky1
								{
									OFFSET 20.037003 -1.530319 -10.950146
									CHANNELS 3 Xrotation Yrotation Zrotation
									JOINT LeftHandPinky2
									{
										OFFSET 5.254700 0.000000 0.000000
										CHANNELS 3 Xrotation Yrotation Zrotation
										JOINT LeftHandPinky3
										{
											OFFSET 4.810204 0.000000 0.000000
											CHANNELS 3 Xrotation Yrotation Zrotation
											JOINT LeftHandPinky4
											{
												OFFSET 3.647202 0.000000 0.000000
												CHANNELS 3 Xrotation Yrotation Zrotation
												End Site
												{
													OFFSET 0.000000 3.647186 0.011889
												}
											}
										}
									}
								}
							}
						}
					}
				}
				JOINT RightShoulder
				{
					OFFSET -15.141001 14.495407 -7.737500
					CHANNELS 3 Xrotation Yrotation Zrotation
					JOINT RightArm
					{
						OFFSET -9.308998 -2.777710 0.208500
						CHANNELS 3 Xrotation Yrotation Zrotation
						JOINT RightForeArm
						{
							OFFSET -29.972300 0.000000 0.000000
							CHANNELS 3 Xrotation Yrotation Zrotation
							JOINT RightHand
							{
								OFFSET -26.026505 0.000000 0.000000
								CHANNELS 3 Xrotation Yrotation Zrotation
								JOINT RightHandThumb1
								{
									OFFSET -12.240601 -7.148026 9.207092
									CHANNELS 3 Xrotation Yrotation Zrotation
									JOINT RightHandThumb2
									{
										OFFSET -4.138618 -2.389435 2.389433
										CHANNELS 3 Xrotation Yrotation Zrotation
										JOINT RightHandThumb3
										{
											OFFSET -2.726974 -1.574417 1.574421
											CHANNELS 3 Xrotation Yrotation Zrotation
											JOINT RightHandThumb4
											{
												OFFSET -3.941010 -2.275345 2.275343
												CHANNELS 3 Xrotation Yrotation Zrotation
												End Site
												{
													OFFSET 0.005814 5.087799 0.009927
												}
											}
										}
									}
								}
								JOINT RightHandIndex1
								{
									OFFSET -24.424698 -1.985657 5.953444
									CHANNELS 3 Xrotation Yrotation Zrotation
									JOINT RightHandIndex2
									{
										OFFSET -6.426697 0.000000 0.000000
										CHANNELS 3 Xrotation Yrotation Zrotation
										JOINT RightHandIndex3
										{
											OFFSET -5.337898 0.000000 0.000000
											CHANNELS 3 Xrotation Yrotation Zrotation
											JOINT RightHandIndex4
											{
												OFFSET -4.409401 0.000000 0.000000
												CHANNELS 3 Xrotation Yrotation Zrotation
												End Site
												{
													OFFSET 0.000000 4.409363 0.014408
												}
											}
										}
									}
								}
								JOINT RightHandMiddle1
								{
									OFFSET -23.810097 0.000000 0.000000
									CHANNELS 3 Xrotation Yrotation Zrotation
									JOINT RightHandMiddle2
									{
										OFFSET -7.176498 0.000000 0.000000
										CHANNELS 3 Xrotation Yrotation Zrotation
										JOINT RightHandMiddle3
										{
											OFFSET -6.774902 0.000000 0.000000
											CHANNELS 3 Xrotation Yrotation Zrotation
											JOINT RightHandMiddle4
											{
												OFFSET -5.403328 0.000000 0.000000
												CHANNELS 3 Xrotation Yrotation Zrotation
												End Site
												{
													OFFSET 0.027702 5.403244 0.017457
												}
											}
										}
									}
								}
								JOINT RightHandRing1
								{
									OFFSET -22.908302 -0.839325 -6.020576
									CHANNELS 3 Xrotation Yrotation Zrotation
									JOINT RightHandRing2
									{
										OFFSET -6.337502 0.000000 0.000000
										CHANNELS 3 Xrotation Yrotation Zrotation
										JOINT RightHandRing3
										{
											OFFSET -5.779297 0.000000 0.000000
											CHANNELS 3 Xrotation Yrotation Zrotation
											JOINT RightHandRing4
											{
												OFFSET -4.965698 0.000000 0.000000
												CHANNELS 3 Xrotation Yrotation Zrotation
												End Site
												{
													OFFSET 0.000000 4.965668 0.016226
												}
											}
										}
									}
								}
								JOINT RightHandPinky1
								{
									OFFSET -20.037003 -1.530334 -10.950259
									CHANNELS 3 Xrotation Yrotation Zrotation
									JOINT RightHandPinky2
									{
										OFFSET -5.254700 0.000000 0.000000
										CHANNELS 3 Xrotation Yrotation Zrotation
										JOINT RightHandPinky3
										{
											OFFSET -4.810204 0.000000 0.000000
											CHANNELS 3 Xrotation Yrotation Zrotation
											JOINT RightHandPinky4
											{
												OFFSET -3.647202 0.000000 0.000000
												CHANNELS 3 Xrotation Yrotation Zrotation
												End Site
												{
													OFFSET 0.000000 3.647186 0.011917
												}
											}
										}
									}
								}
							}
						}
					}
				}
			}
		}
	}
	JOINT LeftUpLeg
	{
		OFFSET 15.427100 -6.655098 0.678600
		CHANNELS 3 Xrotation Yrotation Zrotation
		JOINT LeftLeg
		{
			OFFSET 4.081073 -39.591068 13.024000
			CHANNELS 3 Xrotation Yrotation Zrotation
			JOINT LeftFoot
			{
				OFFSET -4.081074 -37.707932 -15.979700
				CHANNELS 3 Xrotation Yrotation Zrotation
				JOINT LeftToeBase
				{
					OFFSET 5.346399 -15.068900 20.645000
					CHANNELS 3 Xrotation Yrotation Zrotation
					JOINT LeftToe_End
					{
						OFFSET 2.754700 0.931300 11.300900
						CHANNELS 3 Xrotation Yrotation Zrotation
						End Site
						{
							OFFSET 0.000000 11.669021 0.000000
						}
					}
				}
			}
		}
	}
	JOINT RightUpLeg
	{
		OFFSET -15.569500 -6.655098 0.678600
		CHANNELS 3 Xrotation Yrotation Zrotation
		JOINT RightLeg
		{
			OFFSET -4.081825 -39.591045 13.023800
			CHANNELS 3 Xrotation Yrotation Zrotation
			JOINT RightFoot
			{
				OFFSET 4.081824 -37.707954 -15.979600
				CHANNELS 3 Xrotation Yrotation Zrotation
				JOINT RightToeBase
				{
					OFFSET -5.346400 -15.068900 20.645000
					CHANNELS 3 Xrotation Yrotation Zrotation
					JOINT RightToe_End
					{
						OFFSET -2.754700 0.931300 11.300900
						CHANNELS 3 Xrotation Yrotation Zrotation
						End Site
						{
							OFFSET 0.000000 11.669021 0.000000
						}
					}
				}
			}
		}
	}
}
MOTION
Frames: 6
Frame Time: 0.033333
-0.083227 89.050674 -1.654321 5.013410 -3.653215 8.214984 6.025173 -1.836336 2.505144 12.141530 -3.100138 5.546400 12.141521 -3.100139 5.546399 9.725697 -9.957291 6.975687 12.412796 -8.701620 -4.539867 0.000001 0.000000 -0.000000 -31.343581 -18.805650 8.317898 -49.879287 -0.374715 -75.978143 -0.181406 -125.457871 -0.148159 -10.229885 -3.269321 20.083668 -48.512409 13.157088 -3.971917 5.849550 14.755442 1.800857 -0.000001 -0.000001 -0.000007 0.000001 0.000000 0.000000 -8.053815 8.573554 -26.955587 0.740343 1.852034 -22.932451 0.000002 -0.000004 0.000001 0.000002 -0.000001 0.000001 -0.697557 0.625093 -32.061762 -0.334556 -1.124318 -27.158313 -0.000002 -0.000005 0.000004 0.000000 0.000001 0.000002 -1.375959 1.579462 -35.064166 -0.336737 -0.826103 -21.997118 -0.000001 -0.000001 -0.000000 0.000001 -0.000002 -0.000001 3.025581 -1.499762 -40.467389 -0.114732 -1.334815 -8.145121 -0.000002 0.000006 0.000001 -0.000000 -0.000002 -0.000001 -30.181660 22.157002 -11.514507 -59.220001 -7.868953 46.263296 6.495189 123.990350 -5.392187 -26.654209 1.997428 -5.326864 -28.609564 -10.644809 0.170624 0.941281 -1.290256 0.235488 -0.000005 -0.000003 0.000006 -0.000001 -0.000000 -0.000002 -3.993859 -6.999534 18.566623 0.402648 -1.732410 30.432133 -0.000000 -0.000000 -0.000002 -0.000000 0.000001 -0.000004 1.179055 -4.694143 25.563349 -0.268812 1.048408 19.743948 -0.000002 0.000002 0.000002 -0.000001 0.000000 -0.000000 -0.500095 -6.227279 31.110887 1.398938 0.254769 14.962545 0.000001 -0.000001 0.000002 0.000001 0.000000 -0.000002 2.384815 -6.017413 33.822325 -0.305298 1.288878 11.805839 -0.000002 0.000001 0.000003 -0.000000 0.000000 -0.000000 -12.033180 26.221521 3.848780 26.363291 -1.411609 -1.459707 -18.120581 -7.098228 -4.956040 -0.863774 5.269177 -2.976979 -0.000000 -0.000003 0.000000 -33.597513 5.027740 -12.011910 35.228224 0.264623 1.473434 -5.768748 -6.831197 3.601098 -0.666399 2.946535 -0.446855 0.000000 0.000000 -0.000000 
-0.059994 89.020576 -1.624560 4.881962 -4.069047 8.273815 5.867520 -1.834874 2.495093 11.826006 -3.103355 5.526202 11.825995 -3.103352 5.526197 9.629401 -9.975289 6.959891 12.486951 -8.672201 -4.549061 0.000001 0.000000 -0.000001 -30.729602 -18.687522 7.887817 -50.743412 -0.960412 -75.657507 -0.200922 -125.431534 -0.164115 -10.167842 -3.020656 20.094896 -48.512402 13.157053 -3.971907 5.849553 14.755445 1.800838 -0.000002 -0.000004 -0.000007 0.000001 0.000000 0.000000 -8.053816 8.573524 -26.955575 0.740339 1.852046 -22.932447 0.000003 -0.000002 0.000003 0.000002 -0.000000 0.000002 -0.697579 0.625087 -32.061745 -0.334547 -1.124306 -27.158316 0.000001 -0.000008 0.000002 -0.000001 0.000001 -0.000001 -1.375975 1.579458 -35.064163 -0.336739 -0.826097 -21.997123 0.000001 -0.000000 -0.000000 0.000003 -0.000000 -0.000000 3.025565 -1.499756 -40.467368 -0.114730 -1.334824 -8.145123 -0.000001 0.000003 -0.000001 0.000002 -0.000001 0.000001 -30.564721 21.829406 -10.513150 -59.281800 -6.540587 46.109303 6.548673 123.607122 -5.461119 -26.648297 1.947558 -5.448430 -28.609550 -10.644804 0.170630 0.941266 -1.290256 0.235478 -0.000000 -0.000006 0.000006 0.000001 -0.000002 0.000001 -3.993856 -6.999525 18.566619 0.402643 -1.732423 30.432126 -0.000000 -0.000002 0.000003 0.000000 -0.000002 0.000003 1.179066 -4.694144 25.563337 -0.268816 1.048409 19.743951 -0.000001 0.000001 -0.000002 0.000000 -0.000000 0.000003 -0.500080 -6.227276 31.110911 1.398934 0.254778 14.962537 -0.000000 -0.000001 -0.000002 -0.000000 0.000000 -0.000002 2.384822 -6.017411 33.822328 -0.305307 1.288878 11.805842 -0.000001 0.000003 0.000003 0.000000 0.000001 -0.000001 -11.680217 26.195510 3.711862 26.360482 -1.425719 -1.464083 -18.253623 -6.650220 -4.930149 -0.852016 4.821490 -2.737408 -0.000000 0.000002 -0.000000 -33.577869 5.042969 -12.000139 35.286895 0.259835 1.473856 -5.742161 -6.427634 3.558992 -0.539124 2.531298 -0.365542 -0.000000 0.000000 -0.000000 
-0.063353 88.954071 -1.587860 4.800731 -4.551427 8.343715 5.685615 -1.816780 2.465581 11.460409 -3.075227 5.463358 11.460419 -3.075232 5.463356 9.438740 -9.981623 6.811077 12.647297 -8.613074 -4.462113 0.000001 -0.000001 0.000001 -30.066476 -18.589948 7.384456 -51.649194 -1.618691 -75.212984 -0.247553 -125.428692 -0.202114 -10.126085 -2.756510 20.148633 -48.512412 13.157063 -3.971894 5.849524 14.755454 1.800860 -0.000001 -0.000002 -0.000007 -0.000000 -0.000000 0.000000 -8.053821 8.573536 -26.955572 0.740350 1.852043 -22.932446 0.000006 -0.000003 0.000000 0.000002 -0.000001 0.000001 -0.697553 0.625093 -32.061751 -0.334564 -1.124336 -27.158309 -0.000001 -0.000009 0.000001 -0.000002 0.000001 0.000002 -1.375970 1.579457 -35.064159 -0.336735 -0.826112 -21.997131 0.000001 -0.000001 0.000002 0.000002 -0.000003 0.000001 3.025575 -1.499759 -40.467389 -0.114733 -1.334814 -8.145120 -0.000001 0.000003 -0.000003 -0.000001 0.000000 -0.000000 -30.970810 21.482441 -9.446330 -59.295304 -5.102710 45.934276 6.587927 123.193854 -5.520377 -26.660747 1.964514 -5.609543 -28.609562 -10.644817 0.170620 0.941267 -1.290256 0.235476 -0.000005 -0.000006 0.000007 -0.000002 -0.000000 0.000001 -3.993869 -6.999533 18.566618 0.402646 -1.732416 30.432116 -0.000001 -0.000000 0.000002 -0.000001 -0.000001 0.000002 1.179057 -4.694148 25.563352 -0.268821 1.048406 19.743927 -0.000000 0.000000 0.000002 -0.000001 -0.000000 -0.000002 -0.500100 -6.227285 31.110890 1.398939 0.254777 14.962547 -0.000001 0.000000 -0.000000 0.000000 0.000000 -0.000000 2.384805 -6.017417 33.822328 -0.305302 1.288871 11.805845 -0.000002 0.000001 0.000007 0.000001 -0.000001 0.000002 -11.394158 26.191062 3.612014 26.429581 -1.442790 -1.472939 -18.438162 -6.156135 -4.925462 -0.841668 4.343436 -2.475820 -0.000000 0.000000 -0.000000 -33.659182 5.129134 -11.932486 35.425176 0.256771 1.476881 -5.739342 -6.023674 3.495378 -0.407538 2.075666 -0.279837 -0.000000 0.000000 -0.000000 
-0.085486 88.861580 -1.540308 4.719388 -5.079786 8.434279 5.491167 -1.789020 2.423877 11.068938 -3.028051 5.377189 11.068949 -3.028051 5.377196 9.170559 -10.003158 6.471016 12.864223 -8.585355 -4.246597 -0.000001 0.000000 0.000001 -29.363782 -18.559347 6.756029 -52.568240 -2.362135 -74.599777 -0.317223 -125.449811 -0.258818 -10.126888 -2.528467 20.322239 -48.512392 13.157071 -3.971911 5.849542 14.755440 1.800844 -0.000001 0.000001 -0.000008 -0.000000 -0.000000 0.000000 -8.053798 8.573545 -26.955579 0.740353 1.852043 -22.932444 0.000003 -0.000006 0.000003 0.000000 -0.000001 0.000003 -0.697558 0.625096 -32.061772 -0.334547 -1.124319 -27.158326 -0.000000 -0.000007 0.000001 -0.000002 -0.000001 0.000001 -1.375962 1.579452 -35.064180 -0.336735 -0.826094 -21.997111 -0.000001 -0.000003 0.000001 0.000001 0.000001 -0.000003 3.025565 -1.499769 -40.467385 -0.114729 -1.334795 -8.145112 -0.000000 0.000004 -0.000001 -0.000001 0.000000 -0.000000 -31.390918 21.087514 -8.381656 -59.313581 -3.596153 45.837656 6.619003 122.735467 -5.575748 -26.640031 1.970662 -5.676247 -28.609560 -10.644815 0.170613 0.941267 -1.290244 0.235476 -0.000001 -0.000004 0.000006 -0.000002 0.000000 0.000001 -3.993859 -6.999533 18.566599 0.402643 -1.732418 30.432123 -0.000001 0.000000 -0.000000 0.000001 -0.000001 -0.000000 1.179058 -4.694145 25.563325 -0.268809 1.048397 19.743965 -0.000001 0.000001 0.000003 0.000000 0.000000 0.000001 -0.500087 -6.227286 31.110883 1.398942 0.254774 14.962557 -0.000001 0.000000 -0.000003 0.000000 0.000001 -0.000001 2.384817 -6.017418 33.822304 -0.305299 1.288871 11.805857 -0.000003 0.000001 0.000003 -0.000000 0.000000 -0.000002 -11.092927 26.152480 3.498566 26.535095 -1.461677 -1.484370 -18.659479 -5.581082 -4.930513 -0.832320 3.867020 -2.210101 -0.000000 0.000001 0.000000 -33.777024 5.241652 -11.854254 35.631963 0.256094 1.482539 -5.768319 -5.590741 3.413870 -0.270808 1.585512 -0.188406 0.000000 -0.000000 0.000000 
-0.117287 88.757919 -1.473229 4.582403 -5.627120 8.550305 5.298224 -1.756486 2.370599 10.680201 -2.970718 5.274371 10.680199 -2.970719 5.274365 8.843246 -10.050801 5.996875 13.097139 -8.590265 -3.934355 -0.000001 0.000000 -0.000001 -28.630382 -18.585653 6.024990 -53.506705 -3.189188 -73.884957 -0.405824 -125.471572 -0.330905 -10.151148 -2.364052 20.578330 -48.512419 13.157081 -3.971897 5.849535 14.755434 1.800847 -0.000002 0.000003 -0.000008 0.000000 0.000001 -0.000001 -8.053816 8.573547 -26.955575 0.740343 1.852030 -22.932437 0.000003 -0.000003 0.000002 0.000002 0.000001 0.000001 -0.697579 0.625083 -32.061745 -0.334557 -1.124314 -27.158318 -0.000001 -0.000008 0.000003 0.000000 0.000001 0.000000 -1.375968 1.579459 -35.064163 -0.336744 -0.826111 -21.997114 -0.000001 -0.000001 0.000002 0.000002 -0.000000 -0.000003 3.025569 -1.499766 -40.467368 -0.114739 -1.334808 -8.145121 -0.000001 0.000003 -0.000000 0.000002 -0.000001 0.000001 -31.820263 20.645174 -7.335937 -59.344146 -2.058126 45.788389 6.642045 122.248788 -5.626162 -26.596294 1.976814 -5.658168 -28.609566 -10.644817 0.170624 0.941269 -1.290255 0.235475 -0.000001 -0.000004 0.000006 -0.000001 -0.000001 -0.000000 -3.993856 -6.999533 18.566626 0.402647 -1.732415 30.432126 -0.000001 -0.000000 0.000000 -0.000001 -0.000000 0.000002 1.179057 -4.694141 25.563351 -0.268816 1.048403 19.743946 -0.000001 0.000002 -0.000005 -0.000000 -0.000000 0.000000 -0.500096 -6.227274 31.110904 1.398939 0.254771 14.962547 -0.000000 -0.000000 -0.000000 -0.000000 -0.000000 -0.000000 2.384813 -6.017416 33.822325 -0.305298 1.288881 11.805847 -0.000002 0.000001 0.000006 0.000000 -0.000000 0.000001 -10.685826 26.060831 3.331571 26.630882 -1.479722 -1.495839 -18.899740 -4.937116 -4.939741 -0.775440 3.399800 -1.955804 -0.000000 0.000000 -0.000000 -33.852470 5.322314 -11.816979 35.888580 0.256476 1.490569 -5.840371 -5.094101 3.318899 -0.134084 1.072413 -0.091640 0.000000 0.000001 0.000000 
-0.157551 88.646286 -1.387965 4.415946 -6.188929 8.674909 5.108909 -1.715890 2.300787 10.298066 -2.897512 5.142258 10.298064 -2.897514 5.142260 8.466901 -10.096532 5.562778 13.325108 -8.546233 -3.614366 -0.000000 0.000001 -0.000000 -27.872230 -18.575958 5.325589 -54.500931 -4.062382 -73.250903 -0.511294 -125.455357 -0.416872 -10.150839 -2.240415 20.749696 -48.512406 13.157080 -3.971904 5.849548 14.755437 1.800837 -0.000000 0.000001 -0.000008 0.000001 0.000005 -0.000001 -8.053818 8.573547 -26.955582 0.740365 1.852034 -22.932451 0.000003 -0.000000 0.000002 0.000002 -0.000000 0.000002 -0.697566 0.625096 -32.061755 -0.334555 -1.124306 -27.158313 -0.000002 -0.000006 0.000002 -0.000001 -0.000005 0.000000 -1.375972 1.579470 -35.064166 -0.336738 -0.826111 -21.997131 0.000000 -0.000003 0.000001 -0.000001 0.000003 -0.000000 3.025571 -1.499754 -40.467389 -0.114730 -1.334808 -8.145123 -0.000004 0.000003 0.000001 -0.000003 0.000002 0.000001 -32.261794 20.222177 -6.216021 -59.342015 -0.491622 45.587855 6.648380 121.788529 -5.660638 -26.605668 2.070626 -5.741834 -28.609566 -10.644818 0.170621 0.941265 -1.290248 0.235501 -0.000001 -0.000004 0.000007 0.000001 -0.000000 -0.000000 -3.993864 -6.999537 18.566623 0.402646 -1.732411 30.432116 -0.000000 -0.000000 0.000002 0.000000 -0.000001 -0.000000 1.179052 -4.694147 25.563351 -0.268819 1.048415 19.743937 -0.000001 0.000002 0.000001 0.000000 -0.000000 -0.000003 -0.500099 -6.227286 31.110883 1.398942 0.254778 14.962566 -0.000001 0.000000 -0.000002 -0.000000 0.000001 -0.000000 2.384808 -6.017416 33.822332 -0.305303 1.288879 11.805851 -0.000003 0.000001 0.000005 -0.000000 -0.000000 -0.000000 -10.217229 25.940194 3.140711 26.722768 -1.496642 -1.507488 -19.157786 -4.254446 -4.954834 -0.598635 2.899210 -1.703530 0.000000 0.000000 0.000000 -33.906821 5.356123 -11.806058 36.176968 0.255154 1.499953 -5.943995 -4.531039 3.209398 -0.011137 0.549027 0.000109 0.000000 -0.000000 -0.000000 
